# xmcd
#
# Track frame offsets: 
#        150
#        17733
#        34484
#        48823
#        61144
#        82032
#        102695
#        121377
#        133234
#        153811
#        170505
#        185763
#
# Disc length: 2716 seconds
#
# Revision: 0
# Processed by: cddbd v1.5.2PL0 Copyright (c) Steve Scherf et al.
# Submitted via: ExactAudioCopy v0.99pb5
#
DISCID=a50a9a0c
DTITLE=Lykke Li - Youth Novels
DYEAR=1900
DGENRE=
TTITLE0=1. Melodies and Desires 3:52
TTITLE1=2. Dance, Dance, Dance 3:41
TTITLE2=3. I'm Good, I'm Gone 3:09
TTITLE3=4. Let It Fall 2:42
TTITLE4=5. My Love 4:36
TTITLE5=6. Tonight 4:13
TTITLE6=7. Little Bit 4:33
TTITLE7=8. Hanging High 4:07
TTITLE8=9. This Trumpet In My Head 1:42
TTITLE9=10. Complaint Department 4:32
TTITLE10=11. Breaking It Up 3:40
TTITLE11=12. Everybody But Me 3:18
EXTD=
EXTT0=
EXTT1=
EXTT2=
EXTT3=
EXTT4=
EXTT5=
EXTT6=
EXTT7=
EXTT8=
EXTT9=
EXTT10=
EXTT11=
PLAYORDER=
